<svg id="svg" version="1.1" xmlns="http://www.w3.org/2000/svg" xmlns:xlink="http://www.w3.org/1999/xlink" width="400" height="400" viewBox="0, 0, 400,400"><g id="svgg"><path id="path0" d="M196.000 0.461 C 172.844 1.672,159.622 10.941,163.743 23.075 C 165.726 28.913,172.714 36.366,180.300 40.732 C 183.663 42.667,183.512 42.970,178.900 43.562 C 165.733 45.249,146.999 50.296,144.597 52.803 C 140.019 57.582,145.524 64.297,152.151 62.017 C 162.314 58.520,176.427 55.532,187.266 54.581 C 193.441 54.040,196.352 48.931,195.183 40.686 C 194.441 35.448,193.554 34.189,189.000 31.909 C 183.037 28.924,177.535 24.192,175.587 20.374 L 174.789 18.811 175.634 17.966 C 183.173 10.427,220.877 10.581,227.181 18.177 C 229.037 20.414,220.476 28.911,213.062 32.189 C 208.336 34.280,206.104 40.379,207.564 47.215 C 208.794 52.979,210.217 54.216,216.506 54.997 C 245.437 58.586,270.583 69.080,291.789 86.414 C 300.107 93.213,299.404 93.425,312.941 80.039 C 325.419 67.701,325.532 67.513,323.623 62.315 C 321.886 57.585,321.443 55.092,321.437 50.000 C 321.428 43.418,322.032 41.769,324.298 42.188 C 336.971 44.527,358.574 66.160,359.904 77.845 C 360.317 81.465,348.992 81.895,340.217 78.592 C 334.838 76.567,334.926 76.516,322.313 89.103 C 308.566 102.822,308.840 101.979,315.393 110.400 C 332.466 132.338,342.256 156.588,345.427 184.793 C 346.303 192.583,347.615 194.148,354.143 195.191 C 361.268 196.329,365.813 194.391,368.426 189.100 C 371.334 183.211,376.186 177.546,379.979 175.611 L 381.495 174.837 382.304 175.719 C 387.497 181.383,389.836 201.172,386.962 215.132 C 385.734 221.101,383.051 227.225,381.538 227.517 C 379.229 227.961,372.129 220.681,368.987 214.648 C 365.918 208.756,363.453 207.192,357.258 207.206 C 348.954 207.226,346.233 209.340,345.362 216.449 C 341.836 245.208,331.378 269.897,313.144 292.513 C 307.151 299.947,307.034 299.635,320.916 313.279 C 333.405 325.553,332.591 325.091,338.506 323.269 C 345.571 321.094,351.074 320.581,356.008 321.639 C 359.186 322.321,358.956 324.291,354.763 332.329 C 351.894 337.829,351.858 339.152,354.491 342.435 C 356.756 345.258,361.303 344.335,363.823 340.539 C 370.196 330.937,371.803 320.613,367.751 315.300 C 363.333 309.508,350.650 307.520,338.488 310.714 L 335.977 311.374 329.733 305.130 L 323.489 298.886 326.881 294.343 C 342.621 273.260,353.945 245.747,356.623 222.081 C 356.996 218.779,357.524 218.892,359.828 222.765 C 367.319 235.358,378.875 242.132,386.600 238.458 C 405.767 229.344,404.006 167.629,384.459 163.408 C 377.160 161.832,367.384 167.990,360.797 178.313 C 357.124 184.071,357.493 184.116,356.603 177.800 C 353.096 152.896,343.467 128.863,328.796 108.400 C 326.825 105.650,325.209 103.308,325.206 103.195 C 325.203 103.083,328.035 100.163,331.500 96.706 L 337.800 90.422 340.800 91.201 C 354.514 94.763,367.220 91.995,370.764 84.674 C 379.342 66.955,339.103 25.058,318.962 30.736 C 310.792 33.039,307.135 46.670,310.820 61.079 L 311.614 64.183 305.298 70.499 L 298.982 76.815 295.191 73.952 C 274.735 58.501,249.854 47.949,225.000 44.184 C 218.291 43.168,218.320 43.216,222.765 40.572 C 235.314 33.107,242.068 21.800,238.597 14.065 C 234.450 4.824,217.302 -0.652,196.000 0.461 M72.800 29.224 C 51.817 34.683,25.994 66.336,30.434 81.155 C 32.971 89.622,46.193 93.088,61.540 89.308 L 64.080 88.683 70.306 94.909 L 76.532 101.135 73.322 105.468 C 57.573 126.723,47.427 150.776,43.781 175.500 C 42.962 181.054,42.617 181.420,40.947 178.500 C 33.356 165.229,20.814 157.533,13.282 161.524 C -4.714 171.060,-4.533 227.583,13.520 235.900 C 20.825 239.266,31.424 233.536,38.823 222.221 C 42.989 215.849,42.503 215.851,43.397 222.200 C 46.928 247.280,56.430 270.958,71.293 291.717 C 73.215 294.403,74.791 296.692,74.794 296.805 C 74.797 296.917,71.960 299.845,68.489 303.311 L 62.178 309.613 58.989 308.797 C 45.292 305.294,33.057 307.984,29.341 315.317 C 19.790 334.165,65.395 378.715,83.458 368.182 C 90.039 364.345,92.480 351.824,89.170 338.883 L 88.386 335.817 94.702 329.501 L 101.018 323.185 104.209 325.641 C 124.835 341.514,152.317 352.965,177.767 356.291 C 180.888 356.699,180.941 357.245,178.022 358.955 C 164.570 366.839,157.549 378.627,161.592 386.542 C 170.665 404.306,228.160 403.991,236.071 386.135 C 239.551 378.280,231.836 365.839,219.231 358.978 C 216.307 357.387,216.597 357.032,221.300 356.451 C 245.995 353.397,271.869 343.094,292.600 328.058 L 297.000 324.867 303.382 331.216 L 309.763 337.566 309.083 340.283 C 303.536 362.438,312.287 375.699,328.867 370.264 C 339.652 366.728,344.609 360.771,340.237 356.600 C 337.168 353.672,335.960 353.699,329.751 356.834 C 325.763 358.847,324.521 359.293,322.761 359.341 L 320.620 359.400 320.100 357.837 C 318.853 354.093,319.559 346.067,321.677 339.902 C 323.597 334.312,324.088 335.157,311.670 322.671 C 297.330 308.252,298.224 308.572,290.068 314.933 C 267.723 332.360,240.441 343.140,212.944 345.407 C 207.128 345.886,205.136 348.459,204.863 355.843 C 204.595 363.080,205.792 365.487,210.942 368.063 C 218.090 371.639,226.278 379.532,224.994 381.609 C 224.033 383.165,216.312 386.004,210.183 387.055 C 197.257 389.272,176.588 386.364,172.796 381.796 C 171.017 379.652,178.473 372.153,186.416 368.096 C 192.003 365.243,194.007 360.144,192.436 352.784 C 191.137 346.701,189.983 345.826,181.899 344.800 C 154.204 341.285,129.859 330.942,108.006 313.407 L 103.012 309.400 100.560 309.400 L 98.109 309.400 87.754 319.574 C 73.898 333.189,74.551 332.042,76.751 338.911 C 79.489 347.459,79.419 358.000,76.623 358.000 C 72.086 358.000,61.611 351.491,54.076 343.990 C 43.939 333.899,37.278 321.452,41.254 320.028 C 45.210 318.612,54.088 319.264,59.721 321.385 C 65.318 323.492,64.956 323.704,77.900 310.724 C 91.234 297.352,91.050 297.865,85.201 290.402 C 67.773 268.164,57.653 243.369,54.594 215.417 C 53.762 207.815,53.279 207.007,48.600 205.392 C 41.806 203.048,34.353 205.243,31.973 210.289 C 29.184 216.200,23.950 222.385,20.055 224.372 L 18.505 225.163 17.696 224.281 C 10.142 216.042,9.913 182.653,17.348 173.414 C 19.480 170.764,26.893 177.311,31.162 185.613 C 34.259 191.635,36.938 193.090,44.230 192.709 C 51.122 192.348,54.066 190.073,54.565 184.721 C 57.096 157.600,68.666 130.028,87.050 107.310 C 92.781 100.228,92.988 100.757,79.098 86.918 C 66.422 74.288,67.296 74.800,61.698 76.723 C 54.523 79.188,43.076 79.664,41.770 77.551 C 41.136 76.526,43.700 69.930,46.327 65.827 C 54.184 53.553,71.636 39.708,78.287 40.472 C 81.389 40.828,81.318 51.560,78.153 60.762 C 76.474 65.643,76.096 65.027,88.330 77.329 C 102.764 91.843,101.719 91.474,110.000 84.983 C 112.310 83.172,116.658 80.055,119.662 78.056 C 127.142 73.080,127.989 71.658,126.037 67.358 C 123.645 62.092,119.236 63.299,106.413 72.732 L 103.026 75.223 96.668 68.864 L 90.309 62.506 91.209 58.753 C 96.111 38.314,87.982 25.275,72.800 29.224 M135.400 101.483 C 105.043 105.603,90.295 140.295,108.455 164.866 C 125.846 188.398,162.788 185.103,175.976 158.844 C 190.123 130.675,166.488 97.263,135.400 101.483 M147.351 113.987 C 168.382 119.366,175.461 145.455,160.052 160.798 C 142.761 178.015,113.390 166.528,112.499 142.200 C 111.801 123.156,128.943 109.280,147.351 113.987 M291.058 206.234 C 279.372 209.063,271.731 221.193,274.199 233.000 C 277.876 250.589,299.781 257.217,312.574 244.611 C 328.972 228.453,313.473 200.808,291.058 206.234 M301.315 218.506 C 306.645 220.748,309.158 227.958,306.445 233.224 C 301.048 243.700,285.563 239.881,285.609 228.085 C 285.639 220.229,293.709 215.307,301.315 218.506 M235.800 253.973 C 205.208 258.991,199.257 299.742,227.217 312.747 C 253.558 325.000,280.840 297.054,267.971 271.000 C 262.140 259.195,248.377 251.911,235.800 253.973 M245.000 266.145 C 259.509 270.026,264.231 287.705,253.599 298.337 C 242.100 309.836,222.434 302.454,220.961 286.086 C 219.816 273.356,232.531 262.809,245.000 266.145 " stroke="none" fill="#040605" fill-rule="evenodd"></path><path id="path1" d="M194.337 12.392 C 186.487 13.154,177.881 15.719,175.634 17.966 L 174.789 18.811 175.587 20.374 C 177.535 24.192,183.037 28.924,189.000 31.909 C 193.554 34.189,194.441 35.448,195.183 40.686 C 196.352 48.931,193.441 54.040,187.266 54.581 C 176.607 55.516,165.913 57.721,153.942 61.453 C 147.867 63.347,146.186 63.046,143.999 59.672 L 143.399 58.745 140.199 60.116 C 132.954 63.220,125.974 66.958,126.244 67.590 C 127.944 71.572,126.890 73.248,119.662 78.056 C 116.658 80.055,112.310 83.172,110.000 84.983 C 101.719 91.474,102.764 91.843,88.330 77.329 C 76.096 65.027,76.474 65.643,78.153 60.762 C 81.318 51.560,81.389 40.828,78.287 40.472 C 71.636 39.708,54.184 53.553,46.327 65.827 C 43.700 69.930,41.136 76.526,41.770 77.551 C 43.076 79.664,54.523 79.188,61.698 76.723 C 67.296 74.800,66.422 74.288,79.098 86.918 C 92.988 100.757,92.781 100.228,87.050 107.310 C 68.666 130.028,57.096 157.600,54.565 184.721 C 54.066 190.073,51.122 192.348,44.230 192.709 C 36.938 193.090,34.259 191.635,31.162 185.613 C 26.893 177.311,19.480 170.764,17.348 173.414 C 9.913 182.653,10.142 216.042,17.696 224.281 L 18.505 225.163 20.055 224.372 C 23.950 222.385,29.184 216.200,31.973 210.289 C 34.353 205.243,41.806 203.048,48.600 205.392 C 53.279 207.007,53.762 207.815,54.594 215.417 C 57.653 243.369,67.773 268.164,85.201 290.402 C 91.050 297.865,91.234 297.352,77.900 310.724 C 64.956 323.704,65.318 323.492,59.721 321.385 C 54.088 319.264,45.210 318.612,41.254 320.028 C 37.278 321.452,43.939 333.899,54.076 343.990 C 61.611 351.491,72.086 358.000,76.623 358.000 C 79.419 358.000,79.489 347.459,76.751 338.911 C 74.551 332.042,73.898 333.189,87.754 319.574 L 98.109 309.400 100.560 309.400 L 103.012 309.400 108.006 313.407 C 129.859 330.942,154.204 341.285,181.899 344.800 C 189.983 345.826,191.137 346.701,192.436 352.784 C 194.007 360.144,192.003 365.243,186.416 368.096 C 178.473 372.153,171.017 379.652,172.796 381.796 C 176.588 386.364,197.257 389.272,210.183 387.055 C 216.312 386.004,224.033 383.165,224.994 381.609 C 226.278 379.532,218.090 371.639,210.942 368.063 C 205.792 365.487,204.595 363.080,204.863 355.843 C 205.136 348.459,207.128 345.886,212.944 345.407 C 240.441 343.140,267.723 332.360,290.068 314.933 C 298.224 308.572,297.330 308.252,311.670 322.671 C 324.088 335.157,323.597 334.312,321.677 339.902 C 319.559 346.067,318.853 354.093,320.100 357.837 L 320.620 359.400 322.761 359.341 C 324.521 359.293,325.763 358.847,329.751 356.834 C 335.795 353.782,338.102 353.723,340.074 356.568 C 340.606 357.336,342.612 355.783,348.042 350.400 C 354.470 344.027,355.176 343.089,354.301 342.090 C 351.837 339.278,351.906 337.805,354.763 332.329 C 358.956 324.291,359.186 322.321,356.008 321.639 C 351.074 320.581,345.571 321.094,338.506 323.269 C 332.591 325.091,333.405 325.553,320.916 313.279 C 307.034 299.635,307.151 299.947,313.144 292.513 C 331.378 269.897,341.836 245.208,345.362 216.449 C 346.233 209.340,348.954 207.226,357.258 207.206 C 363.453 207.192,365.918 208.756,368.987 214.648 C 372.129 220.681,379.229 227.961,381.538 227.517 C 383.051 227.225,385.734 221.101,386.962 215.132 C 389.836 201.172,387.497 181.383,382.304 175.719 L 381.495 174.837 379.979 175.611 C 376.186 177.546,371.334 183.211,368.426 189.100 C 365.813 194.391,361.268 196.329,354.143 195.191 C 347.615 194.148,346.303 192.583,345.427 184.793 C 342.256 156.588,332.466 132.338,315.393 110.400 C 310.963 104.707,310.656 103.994,311.348 100.984 C 311.686 99.511,332.346 78.681,334.126 78.019 C 335.863 77.373,337.349 77.512,340.217 78.592 C 348.992 81.895,360.317 81.465,359.904 77.845 C 358.574 66.160,336.971 44.527,324.298 42.188 C 320.554 41.496,320.171 52.915,323.623 62.315 C 325.532 67.513,325.419 67.701,312.941 80.039 C 299.404 93.425,300.107 93.213,291.789 86.414 C 270.583 69.080,245.437 58.586,216.506 54.997 C 210.217 54.216,208.794 52.979,207.564 47.215 C 206.104 40.379,208.336 34.280,213.062 32.189 C 220.476 28.911,229.037 20.414,227.181 18.177 C 223.931 14.261,206.575 11.204,194.337 12.392 M146.956 101.804 C 176.619 106.976,190.101 141.114,171.979 165.164 C 153.071 190.257,112.746 183.744,102.651 153.965 C 92.990 125.465,117.457 96.659,146.956 101.804 M133.800 113.765 C 111.336 119.351,104.737 148.130,122.585 162.673 C 140.789 177.506,168.341 164.518,168.393 141.079 C 168.433 123.274,150.979 109.493,133.800 113.765 M301.280 206.045 C 318.989 209.764,325.472 231.902,312.574 244.611 C 299.781 257.217,277.876 250.589,274.199 233.000 C 270.873 217.088,285.332 202.696,301.280 206.045 M294.537 217.643 C 283.979 219.565,282.317 234.082,292.158 238.425 C 296.069 240.151,301.528 239.185,304.312 236.273 C 311.850 228.392,305.192 215.703,294.537 217.643 M248.389 254.813 C 271.248 261.229,278.905 290.022,262.134 306.492 C 241.817 326.445,207.939 311.525,209.314 283.230 C 210.283 263.294,229.309 249.458,248.389 254.813 M233.957 266.550 C 216.808 272.604,216.625 296.377,233.680 302.725 C 248.637 308.292,263.563 293.608,258.350 278.455 C 254.964 268.614,243.693 263.113,233.957 266.550 " stroke="none" fill="#83f3ab" fill-rule="evenodd"></path></g></svg>